<?xml version="1.0" encoding="iso-8859-1"?>
<!-- Generator: Adobe Illustrator 19.1.0, SVG Export Plug-In . SVG Version: 6.00 Build 0)  -->
<svg version="1.1" id="Capa_1" xmlns="http://www.w3.org/2000/svg" xmlns:xlink="http://www.w3.org/1999/xlink" x="0px" y="0px"
	 viewBox="0 0 439.801 439.801" style="enable-background:new 0 0 439.801 439.801;" xml:space="preserve">
<g>
	<path style="fill:#D8B4A4;" d="M116.877,74.784c-3.6,2.497-7.678,3.916-12,3.916c-4.322,0-8.4-1.419-12-3.916v5.176l12,23.487
		l12-23.487V74.784z"/>
	<polygon style="fill:#898785;" points="114.827,94.961 127.71,100.829 128.34,86.295 120.615,83.633 	"/>
	<path style="fill:#D8B4A4;" d="M104.877,73.7c11.731,0,21.274-13.606,21.274-30.331v-7.216c-4.819-0.817-8.115-4.066-9.55-9.346
		c-2.863,1.9-6.982,3.061-11.724,3.061c-4.742,0-8.861-1.161-11.724-3.061c-1.435,5.28-4.731,8.529-9.551,9.346l0.001,7.216
		C83.602,60.094,93.146,73.7,104.877,73.7z M113.879,44.2c0.93-0.93,2.6-0.93,3.53,0c0.47,0.46,0.73,1.11,0.73,1.76
		c0,0.66-0.26,1.309-0.73,1.77c-0.46,0.47-1.11,0.73-1.77,0.73c-0.65,0-1.3-0.26-1.76-0.73c-0.47-0.461-0.74-1.11-0.74-1.77
		C113.139,45.31,113.409,44.66,113.879,44.2z M98.399,58.093c1.175,0,2.161,0.811,2.428,1.903c0.486,0.299,1.873,0.819,4.049,0.819
		c2.176,0,3.562-0.52,4.049-0.82c0.267-1.092,1.253-1.903,2.428-1.903c1.381,0,2.5,1.119,2.5,2.5c0,3.075-3.692,5.223-8.978,5.223
		c-5.286,0-8.978-2.147-8.978-5.223C95.899,59.212,97.018,58.093,98.399,58.093z M91.609,45.961c0-0.65,0.27-1.3,0.73-1.76
		c0.94-0.94,2.6-0.94,3.54,0c0.47,0.46,0.73,1.11,0.73,1.76c0,0.66-0.26,1.3-0.73,1.77c-0.47,0.47-1.11,0.73-1.77,0.73
		c-0.65,0-1.3-0.26-1.77-0.73C91.879,47.27,91.609,46.62,91.609,45.961z"/>
	<path style="fill:#C69C6D;" d="M88.971,20.062c0-1.381,1.119-2.5,2.5-2.5h0.001c0.001,0,0.001,0,0.001,0c1.381,0,2.5,1.119,2.5,2.5
		c0,1.96,4.248,4.807,10.903,4.807c6.656,0,10.903-2.847,10.903-4.807c0-1.381,1.119-2.5,2.5-2.5c0,0,0.001,0,0.001,0
		c0.001,0,0.001,0,0.001,0c1.381,0,2.5,1.119,2.5,2.5c0,6.191,1.807,9.856,5.369,10.952V18.238c0.005-0.243,0.05-4.204-3.381-7.71
		C119.18,6.86,113.16,5,104.877,5s-14.304,1.86-17.894,5.528c-3.431,3.506-3.386,7.466-3.382,7.633l0.001,12.853
		C87.165,29.918,88.971,26.253,88.971,20.062z"/>
	<path style="fill:#E5CBBD;" d="M122.311,308.539c-0.186,0.83-0.038,1.674,0.413,2.385c0.451,0.711,1.152,1.204,1.974,1.387
		c0.823,0.186,1.668,0.037,2.379-0.414c0.711-0.451,1.204-1.152,1.387-1.974c0.014-0.061,0.029-0.121,0.047-0.18l16.583-54.767
		l-9.73-5.755L122.311,308.539z"/>
	<path style="fill:#898785;" d="M107.379,109.54v125.308h25.195l2.774-10.511c0.151-0.674,1.231-5.037,4.494-9.371v-75.098
		c0-0.058,0.123-0.777,0.139-0.822l14.447-41.473c-3.175-2.841-7.572-5.424-13.677-7.008c-0.063-0.016-7.48-2.57-7.48-2.57
		l-0.726,16.754c-0.036,0.83-0.482,1.588-1.191,2.023c-0.399,0.245-0.852,0.369-1.307,0.369c-0.353,0-0.706-0.075-1.037-0.225
		l-16.459-7.498L107.379,109.54z"/>
	<path style="fill:#5576A5;" d="M139.842,289.577l-6.52,21.534c-0.492,2.083-1.755,3.858-3.566,5.007
		c-1.322,0.839-2.823,1.272-4.353,1.272c-0.597,0-1.199-0.066-1.795-0.199c-2.124-0.475-3.938-1.749-5.105-3.587
		c-1.167-1.839-1.548-4.022-1.072-6.148l13.421-60.987c-0.65-0.619-0.937-1.549-0.7-2.445l1.102-4.176H69.912v177.623h24.089
		l8.377-161.27c0.072-1.378,1.239-2.433,2.627-2.367c1.29,0.067,2.289,1.105,2.354,2.368l0.017-0.001l8.377,161.27h24.089V289.577z"
		/>
	<polygon style="fill:#898785;" points="94.926,94.961 89.138,83.633 81.414,86.295 82.044,100.829 	"/>
	<path style="fill:#898785;" d="M69.912,139.867v94.98h32.463V109.54l-5.172-10.122l-16.459,7.498
		c-0.33,0.15-0.684,0.225-1.037,0.225c-0.455,0-0.908-0.124-1.307-0.369c-0.709-0.435-1.155-1.193-1.191-2.023l-0.726-16.754
		c0,0-7.418,2.554-7.48,2.57c-6.094,1.58-10.487,4.184-13.663,7.046c0,0,14.453,41.525,14.466,41.571
		C69.833,139.277,69.912,139.81,69.912,139.867z"/>
	<path style="fill:#736357;" d="M65.018,425.467c-2.564,2.717-3.339,6.783-3.565,9.333h32.422v-12.33h-21
		C69.491,422.471,66.922,423.451,65.018,425.467z"/>
	<path style="fill:#B0CE5F;" d="M150.426,243.566l-8.008-23.46c-1.604,2.77-2.15,5.132-2.196,5.345
		c-0.007,0.035-0.018,0.077-0.027,0.112l-4.727,17.909l12.598,7.452L150.426,243.566z"/>
	<polygon style="fill:#898785;" points="26.644,232.164 42.461,232.164 47.143,223.562 26.015,223.562 	"/>
	<path style="fill:#D8B4A4;" d="M25.756,242.898c-0.233,1.797,0.248,3.581,1.355,5.021c1.108,1.439,2.709,2.361,4.51,2.595
		c1.8,0.232,3.586-0.247,5.025-1.355c1.439-1.108,2.361-2.71,2.595-4.511c0.009-0.069,1.607-7.483,1.607-7.483H26.512
		L25.756,242.898z"/>
	<path style="fill:#898785;" d="M47.191,112.299c-0.008,0.087-20.828,106.262-20.828,106.262h22.932l15.532-78.514l-13.298-38.176
		C47.717,107.214,47.199,112.209,47.191,112.299z"/>
	<path style="fill:#CC7050;" d="M311.723,101.245l16.316-3.916V84.749c-6.033-5.448-10.006-14.661-10.006-25.088v-6.889h0.003
		c-0.001-1.177,0.829-2.227,2.027-2.456c0.182-0.035,18.173-3.631,18.173-15.186V20.041c-4.467,0.26-14.199,1.577-20.778,7.912
		c-4.554,4.384-6.862,10.5-6.862,18.177c0,0.403-0.098,0.801-0.284,1.158c-0.221,0.421-21.267,41.252-5.906,56.657
		C306.584,102.818,309.008,101.883,311.723,101.245z"/>
	<path style="fill:#FCEBE6;" d="M323.034,54.749v4.912c0,13.938,7.941,25.278,17.703,25.278s17.703-11.34,17.703-25.278v-4.912
		c-4.099-1.09-13.266-4.208-17.703-11.093C336.3,50.541,327.133,53.658,323.034,54.749z M330.289,63.2c-0.65,0-1.3-0.27-1.77-0.73
		c-0.46-0.47-0.73-1.11-0.73-1.77c0-0.66,0.27-1.3,0.73-1.77c0.94-0.93,2.61-0.93,3.54,0c0.47,0.47,0.73,1.11,0.73,1.77
		c0,0.66-0.26,1.3-0.73,1.77C331.599,62.93,330.949,63.2,330.289,63.2z M349.419,58.93c0.92-0.93,2.6-0.93,3.53,0
		c0.47,0.47,0.73,1.11,0.73,1.77c0,0.66-0.26,1.3-0.73,1.77c-0.46,0.46-1.11,0.73-1.77,0.73c-0.66,0-1.3-0.27-1.76-0.74
		c-0.47-0.461-0.74-1.1-0.74-1.76C348.679,60.04,348.949,59.4,349.419,58.93z M345.04,72.163c0.253-1.112,1.249-1.943,2.438-1.943
		c1.381,0,2.5,1.119,2.5,2.5c0,3.14-3.8,5.333-9.24,5.333s-9.24-2.193-9.24-5.333c0-1.381,1.119-2.5,2.5-2.5
		c1.189,0,2.185,0.831,2.438,1.943c0.493,0.32,1.959,0.89,4.303,0.89C343.08,73.053,344.547,72.482,345.04,72.163z"/>
	<path style="fill:#898785;" d="M152.773,179.716c-0.3-1.939-0.463-3.937-0.463-5.981c0-21.627,8.779-28.827,16.056-31.772
		c0,0-5.796-29.576-5.804-29.663c-0.035-0.362-0.583-5.263-4.319-10.481l-13.317,38.23L152.773,179.716z"/>
	<path style="fill:#C69C6D;" d="M273.885,159.36l0.007,0.004c0.194-0.31,0.451-0.585,0.781-0.792
		c1.17-0.733,2.712-0.381,3.446,0.788l5.152,8.206h21.31c0-15.564-10.503-22.491-20.765-22.491
		c-12.178,0-19.278,7.747-20.764,22.491h5.68L273.885,159.36z"/>
	<path style="fill:#CC7050;" d="M361.407,50.315c1.2,0.228,2.031,1.278,2.03,2.456h0.003v6.889c0,10.426-3.972,19.638-10.004,25.086
		V97.33l16.328,3.918c2.712,0.637,5.132,1.57,7.307,2.696c15.357-15.406-5.688-56.235-5.907-56.656
		c-0.186-0.357-0.284-0.755-0.284-1.158c0-7.688-2.316-13.811-6.884-18.197c-6.606-6.343-16.304-7.642-20.759-7.895V35.13
		C343.237,46.727,361.225,50.281,361.407,50.315z"/>
	<path style="fill:#FCEBE6;" d="M340.737,89.939c-2.701,0-5.292-0.635-7.697-1.795v11.157c0,1.156-0.792,2.161-1.917,2.431
		l-11.383,2.731c1.27,6.898,9.374,11.413,20.997,11.413c11.624,0,19.729-4.514,20.999-11.413l-11.383-2.731
		c-1.124-0.27-1.917-1.275-1.917-2.431V88.143C346.031,89.303,343.439,89.939,340.737,89.939z"/>
	<path style="fill:#E5CBBD;" d="M304.879,173.734c0-0.395-0.008-0.781-0.014-1.168h-22.976c-0.86,0-1.66-0.442-2.117-1.171
		l-3.77-6.004l-3.77,6.004c-0.457,0.729-1.257,1.171-2.117,1.171h-7.346c-0.006,0.387-0.014,0.773-0.014,1.168
		c0,14.895,9.448,27.012,21.061,27.012C295.43,200.746,304.879,188.629,304.879,173.734z M291.829,176.56c0.93-0.93,2.6-0.93,3.54,0
		c0.46,0.46,0.73,1.11,0.73,1.77c0,0.65-0.27,1.3-0.73,1.76c-0.47,0.47-1.11,0.73-1.77,0.73c-0.66,0-1.3-0.26-1.77-0.73
		c-0.46-0.46-0.73-1.11-0.73-1.76C291.099,177.67,291.369,177.02,291.829,176.56z M272.269,180.13c-0.47-0.46-0.74-1.1-0.74-1.76
		c0-0.66,0.27-1.31,0.74-1.77c0.93-0.93,2.6-0.93,3.53,0c0.47,0.47,0.73,1.11,0.73,1.77c0,0.65-0.26,1.3-0.73,1.76
		c-0.46,0.47-1.11,0.74-1.77,0.74C273.379,180.87,272.729,180.6,272.269,180.13z M275.429,190.622
		c-0.003-1.381,1.113-2.503,2.494-2.506c0.002,0,0.004,0,0.006,0c1.087,0,2.013,0.694,2.357,1.664
		c0.508,0.251,1.722,0.605,3.499,0.605c0.01,0,0.02,0,0.03,0c1.794-0.004,3.018-0.366,3.527-0.62
		c0.34-0.973,1.265-1.671,2.355-1.674c0.002,0,0.004,0,0.006,0c1.378,0,2.497,1.115,2.5,2.494c0.003,0.992-0.425,2.825-3.312,3.952
		c-1.392,0.543-3.191,0.844-5.065,0.848c-0.015,0-0.03,0-0.044,0C278.791,195.385,275.436,193.474,275.429,190.622z"/>
	<path style="fill:#E5CBBD;" d="M178.372,205.746c-2.635,0-5.179-0.487-7.578-1.384c-0.153,0.563-0.497,1.053-0.974,1.388
		c1.201,1.841,4.449,3.471,8.515,3.471c0.013,0,0.029,0.001,0.038,0c0.013,0.001,0.025,0,0.038,0c4.066,0,7.314-1.629,8.515-3.471
		c-0.477-0.334-0.821-0.825-0.974-1.388C183.551,205.259,181.007,205.746,178.372,205.746z"/>
	<path style="fill:#FCEBE6;" d="M296.301,201.928l4.347,1.509c0.572-2.559,1.168-5,1.786-7.331c-1.798,2.256-3.862,4.191-6.133,5.72
		V201.928z"/>
	<path style="fill:#C69C6D;" d="M157.608,167.566h5.68l5.152-8.206c0.734-1.17,2.276-1.523,3.446-0.788
		c0.33,0.207,0.587,0.483,0.781,0.792l0.007-0.004l5.152,8.206h21.31c-1.486-14.744-8.586-22.491-20.765-22.491
		C166.194,145.075,159.094,152.822,157.608,167.566z"/>
	<path style="fill:#898785;" d="M153.397,182.867l4.331,21.894l8.16-2.832v-0.103C159.924,197.811,155.375,191.014,153.397,182.867z
		"/>
	<path style="fill:#E5CBBD;" d="M283.816,205.746c-2.635,0-5.179-0.487-7.578-1.384c-0.153,0.564-0.498,1.055-0.976,1.39
		c1.199,1.849,4.452,3.487,8.549,3.469c0.002,0,0.004,0,0.005,0c0.013,0.001,0.025,0,0.038,0c4.066,0,7.314-1.629,8.515-3.471
		c-0.477-0.334-0.821-0.825-0.974-1.388C288.995,205.259,286.451,205.746,283.816,205.746z"/>
	<path style="fill:#E5CBBD;" d="M174.327,171.395l-3.77-6.004l-3.77,6.004c-0.457,0.729-1.257,1.171-2.117,1.171h-7.346
		c-0.006,0.387-0.014,0.773-0.014,1.168c0,14.895,9.448,27.012,21.062,27.012c11.614,0,21.062-12.117,21.062-27.012
		c0-0.395-0.008-0.781-0.014-1.168h-22.976C175.584,172.566,174.784,172.124,174.327,171.395z M166.819,180.14
		c-0.46-0.47-0.73-1.11-0.73-1.77c0-0.66,0.27-1.31,0.73-1.77c0.93-0.93,2.61-0.93,3.54,0c0.46,0.46,0.73,1.11,0.73,1.77
		c0,0.66-0.27,1.3-0.73,1.77c-0.47,0.46-1.11,0.73-1.77,0.73C167.929,180.87,167.289,180.6,166.819,180.14z M186.389,176.56
		c0.92-0.93,2.6-0.93,3.53,0c0.47,0.46,0.74,1.11,0.74,1.76c0,0.66-0.27,1.31-0.74,1.77c-0.46,0.47-1.11,0.73-1.76,0.73
		c-0.66,0-1.31-0.26-1.77-0.73c-0.47-0.46-0.73-1.11-0.73-1.77C185.659,177.67,185.919,177.02,186.389,176.56z M181.898,189.765
		c0.34-0.973,1.265-1.671,2.355-1.674c0.002,0,0.004,0,0.006,0c1.378,0,2.497,1.115,2.5,2.494c0.002,0.992-0.425,2.825-3.312,3.952
		c-1.392,0.543-3.191,0.844-5.064,0.848c-0.015,0-0.03,0-0.044,0c-4.991,0-8.346-1.911-8.353-4.763
		c-0.003-1.381,1.113-2.503,2.494-2.506c0.002,0,0.004,0,0.006,0c1.087,0,2.013,0.694,2.357,1.664
		c0.511,0.252,1.758,0.639,3.529,0.605C180.164,190.381,181.388,190.019,181.898,189.765z"/>
	<path style="fill:#C69C6D;" d="M156.468,308.103l-5.532,52.011h21.701l3.245-37.104c0.121-1.375,1.338-2.387,2.708-2.273
		c1.227,0.107,2.164,1.086,2.267,2.272l0.005,0l3.269,37.105h21.677l-5.532-52.011H156.468z"/>
	<path style="fill:#C69C6D;" d="M305.72,308.103h-43.809l-5.532,52.011h21.701l3.245-37.104c0.121-1.375,1.331-2.387,2.708-2.273
		c1.227,0.107,2.164,1.086,2.267,2.272l0.005,0l3.269,37.105h21.677L305.72,308.103z"/>
	<polygon style="fill:#E5CBBD;" points="302.684,423.149 305.693,365.114 291.785,365.114 291.765,423.149 	"/>
	<path style="fill:#B3B3B3;" d="M305.052,428.149h-13.288l-0.002,6.651h19.955c0.021-0.014,0.043-0.027,0.064-0.042
		c-0.227-1.535-0.772-3.489-2.071-4.861C308.599,428.726,307.075,428.154,305.052,428.149z"/>
	<path style="fill:#B0CE5F;" d="M321.964,225.443c-0.045-0.209-0.59-2.568-2.193-5.337l-8.009,23.46l2.36,7.358l12.598-7.452
		C326.719,243.472,321.973,225.483,321.964,225.443z"/>
	<path style="fill:#B3B3B3;" d="M262.58,428.149c-2.024,0.004-3.547,0.577-4.657,1.749c-1.31,1.383-1.855,3.36-2.078,4.902h20.025
		l-0.003-6.651H262.58z"/>
	<polygon style="fill:#E5CBBD;" points="275.867,423.149 275.847,365.114 261.94,365.114 264.948,423.149 	"/>
	<path style="fill:#BADFE8;" d="M311.381,256.796l-0.91,48.697l0.301,2.826h17.25l-15.494-51.167
		c-0.243-0.017-0.485-0.055-0.718-0.144C311.659,256.951,311.516,256.88,311.381,256.796z"/>
	<path style="fill:#998675;" d="M319.508,434.801h18.729v-14.648h-10.914C326.582,423.368,324.592,429.493,319.508,434.801z"/>
	<path style="fill:#FCEBE6;" d="M393.101,143.419l-14.906,6.772c-0.525,1.513-1.189,2.862-1.945,4.066l26.1,85.728
		c0.018,0.059,0.034,0.118,0.047,0.178c0.348,1.543,1.276,2.858,2.614,3.703c1.338,0.846,2.926,1.118,4.467,0.771
		c1.544-0.349,2.859-1.277,3.705-2.615c0.845-1.337,1.118-2.924,0.769-4.467L393.101,143.419z"/>
	<path style="fill:#FCEBE6;" d="M332.432,316.118c-1.127-0.715-2.042-1.674-2.691-2.798h-13.848
		c0.217,9.863,1.676,48.171,11.438,101.833h10.905v-97.904c-0.484,0.087-0.969,0.142-1.452,0.142
		C335.256,317.39,333.755,316.958,332.432,316.118z"/>
	<path style="fill:#FCEBE6;" d="M343.685,313.604c-0.14,0.221-0.29,0.432-0.448,0.636v100.913h10.907
		c9.767-53.693,11.221-91.974,11.437-101.833h-21.734C343.792,313.414,343.744,313.511,343.685,313.604z"/>
	<path style="fill:#998675;" d="M343.237,420.152v14.648h18.731c-5.084-5.308-7.074-11.433-7.815-14.648H343.237z"/>
	<path style="fill:#736357;" d="M136.879,422.471h-21v12.33h29.491c0.177-1.603,0.608-3.708,1.631-5.698
		C145.193,424.645,141.873,422.471,136.879,422.471z"/>
	<path style="fill:#E5CBBD;" d="M326.823,249.221l-9.73,5.755l16.583,54.767c0.018,0.059,0.034,0.119,0.047,0.18
		c0.184,0.821,0.676,1.522,1.387,1.974c0.711,0.451,1.555,0.598,2.378,0.414c0.822-0.184,1.523-0.676,1.974-1.387
		c0.451-0.711,0.599-1.555,0.415-2.376L326.823,249.221z"/>
	<path style="fill:#E5CBBD;" d="M221.379,249.221l-9.73,5.755l16.583,54.767c0.018,0.059,0.034,0.119,0.047,0.18
		c0.184,0.821,0.676,1.522,1.387,1.974c0.711,0.451,1.555,0.598,2.378,0.414c0.822-0.184,1.523-0.676,1.974-1.387
		c0.451-0.711,0.599-1.555,0.415-2.376L221.379,249.221z"/>
	<path style="fill:#B0CE5F;" d="M261.003,243.495l1.114,59.607h43.397l1.114-59.607c0.001-0.049,0.121-0.722,0.134-0.761
		l9.31-27.272c-1.999-1.831-4.627-3.414-8.072-4.197c-0.089-0.02-10.905-3.768-10.905-3.768c-1.902,3.909-7.113,6.724-13.242,6.724
		c-0.011,0-0.021,0-0.032,0c-0.004,0-0.007,0-0.011,0c-0.011,0-0.021,0-0.032,0c-6.13,0-11.34-2.815-13.242-6.724
		c0,0-10.816,3.748-10.905,3.768c-3.445,0.784-6.074,2.366-8.072,4.197l9.31,27.272
		C260.883,242.773,261.002,243.447,261.003,243.495z"/>
	<polygon style="fill:#E5CBBD;" points="170.423,423.149 170.403,365.114 156.495,365.114 159.504,423.149 	"/>
	<polygon style="fill:#E5CBBD;" points="186.341,365.114 186.321,423.149 197.239,423.149 200.248,365.114 	"/>
	<path style="fill:#B3B3B3;" d="M157.136,428.149c-2.023,0.004-3.547,0.577-4.657,1.749c-1.31,1.383-1.854,3.36-2.078,4.902h20.025
		l-0.002-6.651H157.136z"/>
	<path style="fill:#B0CE5F;" d="M202.556,211.265c-0.089-0.02-0.178-0.045-0.265-0.076l-10.64-3.692
		c-1.902,3.909-7.113,6.724-13.242,6.724c-0.011,0-0.021,0-0.032,0c-0.003,0-0.007,0-0.011,0c-0.011,0-0.021,0-0.032,0
		c-6.13,0-11.34-2.815-13.242-6.724l-10.64,3.692c-0.087,0.03-0.176,0.056-0.265,0.076c-3.445,0.784-6.074,2.366-8.072,4.197
		l9.31,27.272c0.013,0.039,0.133,0.712,0.134,0.761l1.114,59.607h43.398l1.114-59.607c0.001-0.049,0.121-0.722,0.134-0.761
		l9.31-27.272C208.63,213.631,206.001,212.049,202.556,211.265z"/>
	<path style="fill:#B3B3B3;" d="M186.32,428.149l-0.002,6.651h20.025c-0.223-1.54-0.768-3.519-2.078-4.902
		c-1.11-1.172-2.633-1.745-4.657-1.749H186.32z"/>
	<polygon style="fill:#E5CBBD;" points="233.654,281.737 237.35,298.535 250.539,254.976 240.809,249.221 	"/>
	<path style="fill:#BADFE8;" d="M374.406,129.451c4.084,3.703,5.379,9.424,5.002,14.697l12.588-5.719l-2.327-10.506
		c-0.164-0.712-4.308-17.873-21.061-21.811l-1.976-0.474c-1.806,9.234-11.755,15.238-25.896,15.238
		c-14.139,0-24.088-6.004-25.894-15.237l-1.964,0.471c-16.765,3.941-20.91,21.102-21.078,21.83l-2.323,10.489l12.588,5.718
		c-0.377-5.273,0.919-10.994,5.003-14.696c1.024-0.928,2.604-0.849,3.532,0.173c0.927,1.023,0.85,2.604-0.173,3.532
		c-3.872,3.509-4.158,10.384-2.439,15.361c1.341,3.884,3.715,6.408,6.195,6.585c1.252,0.09,2.243,1.094,2.317,2.347l0.852,14.491
		c0.033,0.552-0.119,1.1-0.431,1.557c-4.467,6.54-8.337,17.165-11.517,31.59l3.845,1.335c13.99,3.265,17.316,16.689,17.592,17.914
		l5.196,19.687c0.237,0.896-0.049,1.826-0.7,2.445c0,0,13.532,61.566,13.565,61.852h40.702
		c-0.177-16.261-2.023-106.967-21.05-134.823c-0.312-0.457-0.464-1.005-0.431-1.557l0.854-14.491
		c0.074-1.253,1.065-2.257,2.317-2.347c2.479-0.177,4.852-2.7,6.193-6.584c1.719-4.978,1.434-11.854-2.438-15.363
		c-1.023-0.927-1.1-2.508-0.173-3.531C371.802,128.602,373.384,128.523,374.406,129.451z"/>
	<path style="fill:#B0CE5F;" d="M216.549,225.563c-0.011-0.04-0.02-0.08-0.029-0.12c-0.045-0.209-0.59-2.568-2.193-5.337
		l-8.009,23.46l2.36,7.358l12.598-7.452L216.549,225.563z"/>
	<path style="fill:#B0CE5F;" d="M245.666,225.451c-0.007,0.035-0.018,0.077-0.027,0.112l-4.727,17.909l12.598,7.452l2.36-7.358
		l-8.008-23.46C246.258,222.877,245.713,225.239,245.666,225.451z"/>
	<path style="fill:#1C1B1A;" d="M172.485,188.116c-0.002,0-0.004,0-0.006,0c-1.381,0.003-2.498,1.125-2.494,2.506
		c0.007,2.852,3.361,4.763,8.353,4.763c0.015,0,0.03,0,0.044,0c1.874-0.004,3.672-0.305,5.064-0.848
		c2.887-1.126,3.314-2.959,3.312-3.952c-0.003-1.379-1.122-2.494-2.5-2.494c-0.002,0-0.004,0-0.006,0
		c-1.089,0.003-2.014,0.701-2.355,1.674c-0.51,0.254-1.734,0.616-3.527,0.62c-1.771,0.034-3.018-0.353-3.529-0.605
		C174.498,188.81,173.572,188.116,172.485,188.116z"/>
	<path style="fill:#1C1B1A;" d="M171.089,178.37c0-0.66-0.27-1.31-0.73-1.77c-0.93-0.93-2.61-0.93-3.54,0
		c-0.46,0.46-0.73,1.11-0.73,1.77c0,0.66,0.27,1.3,0.73,1.77c0.47,0.46,1.11,0.73,1.77,0.73c0.66,0,1.3-0.27,1.77-0.73
		C170.819,179.67,171.089,179.03,171.089,178.37z"/>
	<path style="fill:#1C1B1A;" d="M188.159,180.82c0.65,0,1.3-0.26,1.76-0.73c0.47-0.46,0.74-1.11,0.74-1.77
		c0-0.65-0.27-1.3-0.74-1.76c-0.93-0.93-2.61-0.93-3.53,0c-0.47,0.46-0.73,1.11-0.73,1.76c0,0.66,0.26,1.31,0.73,1.77
		C186.849,180.56,187.499,180.82,188.159,180.82z"/>
	<path style="fill:#1C1B1A;" d="M288.891,194.537c2.887-1.126,3.315-2.959,3.312-3.952c-0.003-1.379-1.122-2.494-2.5-2.494
		c-0.002,0-0.004,0-0.006,0c-1.089,0.003-2.014,0.701-2.355,1.674c-0.51,0.254-1.734,0.616-3.527,0.62c-0.01,0-0.02,0-0.03,0
		c-1.777,0-2.991-0.355-3.499-0.605c-0.344-0.97-1.27-1.664-2.357-1.664c-0.002,0-0.004,0-0.006,0
		c-1.381,0.003-2.498,1.125-2.494,2.506c0.007,2.852,3.361,4.763,8.353,4.763c0.015,0,0.03,0,0.044,0
		C285.7,195.381,287.499,195.08,288.891,194.537z"/>
	<path style="fill:#1C1B1A;" d="M276.529,178.37c0-0.66-0.26-1.3-0.73-1.77c-0.93-0.93-2.6-0.93-3.53,0
		c-0.47,0.46-0.74,1.11-0.74,1.77c0,0.66,0.27,1.3,0.74,1.76c0.461,0.47,1.11,0.74,1.76,0.74c0.66,0,1.31-0.27,1.77-0.74
		C276.269,179.67,276.529,179.02,276.529,178.37z"/>
	<path style="fill:#1C1B1A;" d="M293.599,180.82c0.66,0,1.3-0.26,1.77-0.73c0.46-0.46,0.73-1.11,0.73-1.76
		c0-0.66-0.27-1.31-0.73-1.77c-0.94-0.93-2.61-0.93-3.54,0c-0.46,0.46-0.73,1.11-0.73,1.77c0,0.65,0.27,1.3,0.73,1.76
		C292.299,180.56,292.939,180.82,293.599,180.82z"/>
	<path style="fill:#1C1B1A;" d="M333.997,70.22c-1.381,0-2.5,1.119-2.5,2.5c0,3.14,3.8,5.333,9.24,5.333s9.24-2.193,9.24-5.333
		c0-1.381-1.119-2.5-2.5-2.5c-1.189,0-2.185,0.831-2.438,1.943c-0.493,0.32-1.959,0.89-4.303,0.89c-2.343,0-3.81-0.57-4.303-0.89
		C336.181,71.05,335.186,70.22,333.997,70.22z"/>
	<path style="fill:#1C1B1A;" d="M332.789,60.7c0-0.66-0.26-1.3-0.73-1.77c-0.93-0.93-2.6-0.93-3.54,0
		c-0.46,0.47-0.73,1.11-0.73,1.77c0,0.66,0.27,1.3,0.73,1.77c0.47,0.46,1.12,0.73,1.77,0.73c0.66,0,1.31-0.27,1.77-0.73
		C332.529,62,332.789,61.36,332.789,60.7z"/>
	<path style="fill:#1C1B1A;" d="M351.179,63.2c0.66,0,1.31-0.27,1.77-0.73c0.47-0.47,0.73-1.11,0.73-1.77c0-0.66-0.26-1.3-0.73-1.77
		c-0.93-0.93-2.61-0.93-3.53,0c-0.47,0.47-0.74,1.11-0.74,1.77c0,0.66,0.27,1.3,0.74,1.76C349.879,62.93,350.519,63.2,351.179,63.2z
		"/>
	<path style="fill:#1C1B1A;" d="M397.315,139.322c-0.001-0.005-0.002-0.011-0.004-0.016l-2.763-12.475
		c-0.147-0.651-2.976-12.531-13.157-20.175c15.705-17.519-2.84-55.854-5.516-61.139c-0.125-8.82-2.955-15.947-8.416-21.191
		c-9.995-9.598-25.223-9.385-26.723-9.34c-1.518-0.044-16.729-0.254-26.719,9.339c-5.462,5.244-8.292,12.372-8.416,21.191
		c-2.677,5.285-21.223,43.622-5.515,61.14c-10.184,7.645-13.013,19.524-13.163,20.185l-2.931,13.235
		c-0.058,0-0.12-0.002-0.176-0.002c-7.487,0-26.061,2.485-26.061,33.659c0,12.099,5.494,22.65,13.577,28.091v0.103l-12.948,4.494
		c-13.99,3.265-17.316,16.689-17.592,17.914l-5.196,19.687c-0.237,0.896,0.049,1.826,0.7,2.445l-5.202,23.638l-5.202-23.638
		c0.65-0.619,0.936-1.549,0.7-2.445l-5.196-19.687c-0.275-1.226-3.602-14.65-17.592-17.914l-12.948-4.494v-0.102
		c8.084-5.442,13.578-15.993,13.578-28.092c0-30.923-18.573-33.659-26.062-33.659c-1.438,0-3.227,0.113-5.187,0.48l-5.658-28.846
		c-0.218-1.976-2.823-20.049-25.426-25.96l-20.225-6.97v-8.502c5.668-6.486,9.274-16.138,9.274-26.907l-0.001-9.492
		c0-0.003,0.001-0.005,0.001-0.007c0-0.002-0.001-0.005-0.001-0.007l-0.001-15.528c0.01-0.248,0.18-6.121-4.698-11.193
		C121.893,2.403,114.635,0,104.877,0C95.119,0,87.86,2.403,83.302,7.142c-4.878,5.072-4.708,10.945-4.7,11.096V43.37
		c0,10.769,3.606,20.421,9.274,26.907v8.502l-20.225,6.97c-22.604,5.912-25.208,23.987-25.426,25.961
		c0,0-21.391,109.424-21.389,109.461c0.001,0.024-0.006,0.047-0.004,0.071l0.976,13.347l-1.01,7.659
		c-0.406,3.125,0.429,6.222,2.351,8.719c1.922,2.498,4.702,4.097,7.827,4.503c0.517,0.067,1.034,0.101,1.547,0.101
		c2.587,0,5.089-0.847,7.173-2.452c2.468-1.9,4.059-4.638,4.488-7.719l2.13-9.859l7.23-13.285
		c0.012-0.022,11.367-56.87,11.367-56.87v71.961c0,0.005,0.002,0.009,0.002,0.014c0,0.005-0.002,0.009-0.002,0.014v181.948
		c-1.306,0.706-2.486,1.607-3.529,2.712c-5.49,5.816-5.026,15.021-5.003,15.41c0.076,1.323,1.171,2.356,2.496,2.356h37.5
		c1.381,0,2.5-1.119,2.5-2.5v-17.266l6.002-115.548l6.002,115.548v17.266c0,1.381,1.119,2.5,2.5,2.5h59.549
		c0.663,0,1.299-0.264,1.768-0.732c0.469-0.469,0.732-1.105,0.732-1.769l-0.024-72.231c1.076-0.208,1.916-1.107,2.015-2.237
		l0.963-11.011l0.97,11.013c0.099,1.12,0.926,2.011,1.989,2.228l-0.024,72.239c0,0.663,0.263,1.299,0.732,1.769
		c0.469,0.469,1.105,0.732,1.768,0.732h25.167c1.323,0,2.417-1.03,2.496-2.351c0.017-0.275,0.359-6.795-3.557-10.962
		c-1.521-1.618-3.427-2.653-5.688-3.094l3.022-58.28h3.333c0.709,0,1.385-0.301,1.859-0.828c0.474-0.527,0.702-1.231,0.627-1.937
		l-6.048-56.855l0.91-48.697c0.135,0.084,0.278,0.155,0.429,0.212c0.233,0.089,0.475,0.128,0.718,0.144l16.339,53.959
		c0.492,2.083,1.755,3.858,3.566,5.007c1.323,0.839,2.823,1.272,4.353,1.272c0.597,0,1.198-0.066,1.795-0.199
		c2.125-0.475,3.938-1.749,5.105-3.587c0.935-1.474,1.356-3.169,1.246-4.874l15.617-51.578c0.243-0.017,0.485-0.055,0.718-0.144
		c0.15-0.057,0.294-0.128,0.429-0.212l0.91,48.697l-6.048,56.855c-0.075,0.705,0.153,1.409,0.627,1.937
		c0.474,0.527,1.15,0.828,1.859,0.828h3.333l3.022,58.28c-2.261,0.441-4.167,1.477-5.688,3.094
		c-3.916,4.167-3.574,10.686-3.557,10.962c0.079,1.32,1.173,2.351,2.496,2.351h25.167c0.663,0,1.299-0.264,1.768-0.732
		c0.469-0.469,0.732-1.105,0.732-1.769l-0.024-72.231c1.076-0.208,1.916-1.107,2.015-2.237l0.963-11.011l0.97,11.013
		c0.099,1.12,0.926,2.011,1.989,2.228L286.76,437.3c0,0.663,0.263,1.299,0.732,1.769c0.469,0.469,1.105,0.732,1.768,0.732h79.764
		c1.119,0,2.102-0.744,2.406-1.821c0.304-1.078-0.145-2.225-1.1-2.811c-9.186-5.633-11.25-15.549-11.57-17.473
		c10.118-54.99,11.604-94.362,11.82-104.377h17.541c1.381,0,2.5-1.119,2.5-2.5c0-4.378-0.246-106.844-21.459-139.422l0.691-11.74
		c0.853-0.277,1.67-0.688,2.448-1.204l25.241,82.904c0.659,2.805,2.36,5.194,4.799,6.735c1.768,1.117,3.771,1.692,5.812,1.692
		c0.807-0.001,1.62-0.09,2.426-0.272c2.847-0.642,5.272-2.355,6.83-4.822c1.558-2.467,2.062-5.393,1.421-8.229L397.315,139.322z
		 M343.237,20.038c4.455,0.252,14.153,1.551,20.759,7.895c4.568,4.386,6.884,10.508,6.884,18.197c0,0.403,0.098,0.801,0.284,1.158
		c0.22,0.421,21.264,41.25,5.907,56.656c-2.175-1.125-4.596-2.059-7.307-2.696l-16.328-3.918V84.747
		c6.032-5.448,10.004-14.66,10.004-25.086v-6.889h-0.003c0.001-1.178-0.831-2.228-2.03-2.456c-0.182-0.035-18.17-3.589-18.17-15.185
		V20.038z M350.353,101.732l11.383,2.731c-1.27,6.898-9.375,11.413-20.999,11.413c-11.623,0-19.727-4.514-20.997-11.413
		l11.383-2.731c1.124-0.27,1.917-1.275,1.917-2.431V88.144c2.405,1.16,4.996,1.795,7.697,1.795c2.702,0,5.294-0.636,7.699-1.795
		v11.158C348.436,100.457,349.229,101.462,350.353,101.732z M340.737,43.655c4.437,6.885,13.605,10.003,17.703,11.093v4.912
		c0,13.938-7.941,25.278-17.703,25.278s-17.703-11.34-17.703-25.278v-4.912C327.133,53.658,336.3,50.541,340.737,43.655z
		 M310.312,47.288c0.187-0.357,0.284-0.755,0.284-1.158c0-7.677,2.309-13.792,6.862-18.177c6.579-6.334,16.311-7.651,20.778-7.912
		V35.13c0,11.555-17.991,15.151-18.173,15.186c-1.198,0.229-2.028,1.279-2.027,2.456h-0.003v6.889
		c0,10.427,3.973,19.64,10.006,25.088V97.33l-16.316,3.916c-2.715,0.638-5.139,1.573-7.317,2.699
		C289.045,88.54,310.092,47.709,310.312,47.288z M283.816,145.075c10.262,0,20.765,6.927,20.765,22.491h-21.31l-5.152-8.206
		c-0.734-1.17-2.276-1.522-3.446-0.788c-0.33,0.207-0.587,0.483-0.781,0.792l-0.007-0.004l-5.152,8.206h-5.68
		C264.538,152.822,271.638,145.075,283.816,145.075z M262.755,173.734c0-0.395,0.008-0.781,0.014-1.168h7.346
		c0.86,0,1.66-0.442,2.117-1.171l3.77-6.004l3.77,6.004c0.457,0.729,1.257,1.171,2.117,1.171h22.976
		c0.006,0.387,0.014,0.773,0.014,1.168c0,14.895-9.449,27.012-21.062,27.012C272.203,200.746,262.755,188.629,262.755,173.734z
		 M302.433,196.106c-0.618,2.331-1.214,4.772-1.786,7.331l-4.347-1.509v-0.102C298.572,200.297,300.635,198.362,302.433,196.106z
		 M292.368,205.75c-1.201,1.841-4.448,3.471-8.515,3.471c-0.013,0-0.024,0.001-0.038,0c-0.001,0-0.003,0-0.005,0
		c-4.097,0.018-7.35-1.621-8.549-3.469c0.478-0.335,0.823-0.826,0.976-1.39c2.399,0.898,4.943,1.384,7.578,1.384
		c2.635,0,5.179-0.487,7.578-1.384C291.548,204.925,291.891,205.416,292.368,205.75z M199.434,173.734
		c0,14.895-9.449,27.012-21.062,27.012c-11.613,0-21.062-12.117-21.062-27.012c0-0.395,0.008-0.781,0.014-1.168h7.346
		c0.86,0,1.66-0.442,2.117-1.171l3.77-6.004l3.77,6.004c0.457,0.729,1.257,1.171,2.117,1.171h22.976
		C199.426,172.953,199.434,173.339,199.434,173.734z M186.924,205.75c-1.201,1.841-4.448,3.471-8.515,3.471
		c-0.013,0-0.025,0.001-0.038,0c-0.009,0.001-0.025,0-0.038,0c-4.066,0-7.314-1.629-8.515-3.471
		c0.478-0.335,0.821-0.825,0.974-1.388c2.399,0.898,4.943,1.384,7.578,1.384c2.635,0,5.179-0.487,7.578-1.384
		C186.103,204.925,186.447,205.416,186.924,205.75z M165.887,201.826v0.103l-8.16,2.832l-4.331-21.894
		C155.375,191.014,159.924,197.811,165.887,201.826z M178.372,145.075c12.179,0,19.279,7.747,20.765,22.491h-21.31l-5.152-8.206
		l-0.007,0.004c-0.194-0.31-0.451-0.585-0.781-0.792c-1.17-0.734-2.712-0.381-3.446,0.788l-5.152,8.206h-5.68
		C159.094,152.822,166.194,145.075,178.372,145.075z M162.562,112.299c0.008,0.087,5.804,29.663,5.804,29.663
		c-7.276,2.945-16.056,10.145-16.056,31.772c0,2.044,0.163,4.043,0.463,5.981l-7.847-39.668l13.317-38.23
		C161.979,107.037,162.527,111.937,162.562,112.299z M135.468,243.472l4.727-17.909c0.009-0.035,0.02-0.077,0.027-0.112
		c0.046-0.212,0.592-2.574,2.196-5.345l8.008,23.46l-2.36,7.358L135.468,243.472z M145.095,254.976l-16.583,54.767
		c-0.018,0.059-0.034,0.119-0.047,0.18c-0.184,0.821-0.676,1.522-1.387,1.974c-0.711,0.452-1.556,0.6-2.379,0.414
		c-0.821-0.184-1.522-0.676-1.974-1.387c-0.451-0.711-0.599-1.555-0.413-2.385l13.054-59.318L145.095,254.976z M152.958,206.416
		l-0.018,0.006c-3.243,0.757-5.906,2.063-8.098,3.633v-44.668L152.958,206.416z M130.047,107.141c0.455,0,0.908-0.124,1.307-0.369
		c0.708-0.435,1.155-1.193,1.191-2.023l0.726-16.754c0,0,7.418,2.554,7.48,2.57c6.105,1.584,10.502,4.167,13.677,7.008
		l-14.447,41.473c-0.016,0.045-0.139,0.765-0.139,0.822v75.098c-3.263,4.334-4.342,8.697-4.494,9.371l-2.774,10.511h-25.195V109.54
		l5.172-10.122l16.459,7.498C129.341,107.066,129.694,107.141,130.047,107.141z M104.877,103.447l-12-23.487v-5.176
		c3.6,2.497,7.678,3.916,12,3.916c4.322,0,8.4-1.419,12-3.916v5.176L104.877,103.447z M128.34,86.295l-0.63,14.533l-12.882-5.868
		l5.788-11.327L128.34,86.295z M86.983,10.528C90.573,6.86,96.593,5,104.877,5s14.304,1.86,17.894,5.528
		c3.431,3.506,3.386,7.466,3.381,7.71v12.776c-3.562-1.096-5.369-4.762-5.369-10.952c0-1.381-1.119-2.5-2.5-2.5c0,0,0,0-0.001,0
		c0,0,0,0-0.001,0c-1.381,0-2.5,1.119-2.5,2.5c0,1.96-4.248,4.807-10.903,4.807c-6.656,0-10.903-2.847-10.903-4.807
		c0-1.381-1.119-2.5-2.5-2.5c0,0,0,0-0.001,0h-0.001c-1.381,0-2.5,1.119-2.5,2.5c0,6.191-1.807,9.856-5.37,10.953l-0.001-12.853
		C83.597,17.995,83.552,14.034,86.983,10.528z M83.602,43.37l-0.001-7.216c4.82-0.817,8.115-4.066,9.551-9.346
		c2.863,1.9,6.982,3.061,11.724,3.061c4.742,0,8.861-1.161,11.724-3.061c1.435,5.28,4.731,8.529,9.55,9.346v7.216
		c0,16.724-9.544,30.331-21.274,30.331C93.146,73.7,83.602,60.094,83.602,43.37z M89.138,83.633l5.788,11.327l-12.882,5.868
		l-0.63-14.533L89.138,83.633z M39.241,244.648c-0.234,1.801-1.156,3.403-2.595,4.511c-1.439,1.108-3.225,1.587-5.025,1.355
		c-1.8-0.234-3.402-1.155-4.51-2.595c-1.108-1.439-1.589-3.224-1.355-5.021l0.756-5.734h14.337
		C40.849,237.164,39.25,244.579,39.241,244.648z M42.461,232.164H26.644l-0.628-8.603h21.127L42.461,232.164z M49.296,218.562
		H26.364c0,0,20.82-106.175,20.828-106.262c0.008-0.09,0.526-5.085,4.338-10.427l13.298,38.176L49.296,218.562z M55.34,97.611
		c3.176-2.863,7.569-5.466,13.663-7.046c0.063-0.016,7.48-2.57,7.48-2.57l0.726,16.754c0.036,0.83,0.482,1.588,1.191,2.023
		c0.399,0.245,0.852,0.369,1.307,0.369c0.353,0,0.706-0.075,1.037-0.225l16.459-7.498l5.172,10.122v125.308H69.912v-94.98
		c0-0.058-0.079-0.59-0.106-0.686C69.792,139.136,55.34,97.611,55.34,97.611z M93.875,434.801H61.453
		c0.226-2.55,1.001-6.617,3.565-9.333c1.903-2.017,4.473-2.997,7.856-2.997h21V434.801z M107.375,256.201l-0.017,0.001
		c-0.065-1.263-1.064-2.3-2.354-2.368c-1.388-0.066-2.555,0.988-2.627,2.367l-8.377,161.27H69.912V239.848h61.342l-1.102,4.176
		c-0.237,0.896,0.049,1.826,0.7,2.445l-13.421,60.987c-0.475,2.125-0.095,4.309,1.072,6.148c1.167,1.839,2.98,3.113,5.105,3.587
		c0.597,0.133,1.198,0.199,1.795,0.199c1.529,0,3.03-0.433,4.353-1.272c1.811-1.149,3.074-2.924,3.566-5.007l6.52-21.534v127.893
		h-24.089L107.375,256.201z M145.37,434.801h-29.491v-12.33h21c4.994,0,8.314,2.174,10.122,6.632
		C145.978,431.093,145.547,433.198,145.37,434.801z M144.842,419.355v-146.29l4.818-15.912c0.243-0.017,0.485-0.055,0.718-0.144
		c0.15-0.057,0.294-0.128,0.429-0.212l0.91,48.697l-6.048,56.855c-0.075,0.705,0.153,1.409,0.627,1.937
		c0.474,0.527,1.15,0.828,1.859,0.828h3.333l3.022,58.28c-1.474,0.288-2.78,0.854-3.944,1.643
		C149.136,422.54,147.202,420.632,144.842,419.355z M150.402,434.801c0.223-1.542,0.768-3.519,2.078-4.902
		c1.11-1.172,2.633-1.745,4.657-1.749h13.288l0.002,6.651H150.402z M156.495,365.114h13.908l0.019,58.036h-10.918L156.495,365.114z
		 M204.264,429.898c1.31,1.384,1.855,3.362,2.078,4.902h-20.025l0.002-6.651h13.288
		C201.631,428.154,203.155,428.726,204.264,429.898z M186.321,423.149l0.02-58.036h13.908l-3.009,58.036H186.321z M205.808,360.114
		h-21.677l-3.269-37.105l-0.005,0c-0.104-1.186-1.04-2.165-2.267-2.272c-1.37-0.114-2.588,0.898-2.708,2.273l-3.245,37.104h-21.701
		l5.532-52.011h43.809L205.808,360.114z M201.319,242.734c-0.013,0.039-0.133,0.712-0.134,0.761l-1.114,59.607h-43.398
		l-1.114-59.607c-0.001-0.048-0.121-0.722-0.134-0.761l-9.31-27.272c1.999-1.831,4.627-3.414,8.072-4.197
		c0.089-0.02,0.178-0.045,0.265-0.076l10.64-3.692c1.902,3.909,7.112,6.724,13.242,6.724c0.01,0,0.021,0,0.032,0
		c0.003,0,0.007,0,0.011,0c0.011,0,0.021,0,0.032,0c6.129,0,11.34-2.815,13.242-6.724l10.64,3.692
		c0.087,0.03,0.176,0.056,0.265,0.076c3.445,0.784,6.074,2.366,8.072,4.197L201.319,242.734z M206.318,243.566l8.009-23.46
		c1.603,2.769,2.148,5.128,2.193,5.337c0.009,0.04,0.018,0.08,0.029,0.12l4.727,17.909l-12.598,7.452L206.318,243.566z
		 M234.019,310.924c-0.451,0.711-1.152,1.204-1.974,1.387c-0.824,0.184-1.667,0.037-2.378-0.414
		c-0.711-0.451-1.204-1.152-1.387-1.974c-0.014-0.061-0.029-0.121-0.047-0.18l-16.583-54.767l9.73-5.755l13.056,59.327
		C234.618,309.369,234.47,310.213,234.019,310.924z M237.35,298.535l-3.697-16.798l7.156-32.517l9.73,5.755L237.35,298.535z
		 M253.51,250.924l-12.598-7.452l4.727-17.909c0.009-0.035,0.02-0.077,0.027-0.112c0.046-0.212,0.592-2.574,2.196-5.345l8.008,23.46
		L253.51,250.924z M251.559,215.462c1.998-1.831,4.627-3.414,8.072-4.197c0.089-0.02,10.905-3.768,10.905-3.768
		c1.902,3.909,7.112,6.724,13.242,6.724c0.01,0,0.021,0,0.032,0c0.003,0,0.007,0,0.011,0c0.011,0,0.021,0,0.032,0
		c6.129,0,11.34-2.815,13.242-6.724c0,0,10.816,3.748,10.905,3.768c3.445,0.784,6.074,2.366,8.072,4.197l-9.31,27.272
		c-0.013,0.039-0.133,0.712-0.134,0.761l-1.114,59.607h-43.397l-1.114-59.607c-0.001-0.048-0.121-0.722-0.134-0.761L251.559,215.462
		z M311.762,243.566l8.009-23.46c1.603,2.769,2.148,5.128,2.193,5.337c0.009,0.04,4.755,18.029,4.755,18.029l-12.598,7.452
		L311.762,243.566z M328.022,308.32h-17.25l-0.301-2.826l0.91-48.697c0.135,0.084,0.278,0.155,0.429,0.212
		c0.233,0.089,0.475,0.128,0.718,0.144L328.022,308.32z M255.846,434.801c0.223-1.542,0.768-3.519,2.078-4.902
		c1.11-1.172,2.633-1.745,4.657-1.749h13.288l0.003,6.651H255.846z M261.94,365.114h13.908l0.02,58.036h-10.919L261.94,365.114z
		 M286.306,323.009l-0.005,0c-0.104-1.186-1.04-2.165-2.267-2.272c-1.378-0.114-2.588,0.898-2.708,2.273l-3.245,37.104H256.38
		l5.532-52.011h43.809l5.532,52.011h-21.677L286.306,323.009z M305.693,365.114l-3.009,58.036h-10.918l0.02-58.036H305.693z
		 M311.716,434.801h-19.955l0.002-6.651h13.288c2.023,0.004,3.547,0.577,4.657,1.749c1.299,1.372,1.845,3.326,2.071,4.861
		C311.759,434.773,311.737,434.787,311.716,434.801z M313.366,426.488c-1.521-1.618-3.427-2.653-5.689-3.094l3.022-58.28h3.333
		c0.263,0,0.517-0.054,0.762-0.133c1.749,15.116,4.275,32.903,7.921,52.716c-0.252,1.518-1.594,8.024-6.676,13.469
		C315.512,429.558,314.684,427.891,313.366,426.488z M338.237,434.801h-18.729c5.084-5.308,7.074-11.433,7.815-14.648h10.914
		V434.801z M338.237,415.152h-10.905c-9.763-53.662-11.221-91.97-11.438-101.833h13.848c0.649,1.124,1.563,2.083,2.691,2.798
		c1.323,0.839,2.823,1.272,4.353,1.272c0.483,0,0.968-0.055,1.452-0.142V415.152z M339.464,310.924
		c-0.451,0.711-1.152,1.204-1.974,1.387c-0.823,0.184-1.667,0.037-2.378-0.414c-0.711-0.451-1.204-1.152-1.387-1.974
		c-0.014-0.061-0.029-0.121-0.047-0.18l-16.583-54.767l9.73-5.755l13.056,59.327C340.062,309.369,339.915,310.213,339.464,310.924z
		 M361.968,434.801h-18.731v-14.648h10.916C354.894,423.368,356.884,429.493,361.968,434.801z M354.144,415.152h-10.907V314.239
		c0.158-0.204,0.308-0.415,0.448-0.636c0.059-0.093,0.107-0.189,0.161-0.284h21.734C365.365,323.178,363.911,361.46,354.144,415.152
		z M371.048,133.155c3.871,3.51,4.156,10.385,2.438,15.363c-1.341,3.883-3.714,6.406-6.193,6.584
		c-1.252,0.09-2.243,1.094-2.317,2.347l-0.854,14.491c-0.033,0.552,0.119,1.1,0.431,1.557
		c19.026,27.856,20.873,118.562,21.05,134.823h-40.702c-0.033-0.286-13.565-61.852-13.565-61.852c0.65-0.619,0.937-1.549,0.7-2.445
		l-5.196-19.687c-0.275-1.226-3.602-14.65-17.592-17.914l-3.845-1.335c3.18-14.426,7.05-25.05,11.517-31.59
		c0.312-0.457,0.464-1.004,0.431-1.557l-0.852-14.491c-0.074-1.253-1.065-2.257-2.317-2.347c-2.48-0.177-4.853-2.701-6.195-6.585
		c-1.718-4.977-1.432-11.852,2.439-15.361c1.023-0.928,1.101-2.508,0.173-3.532c-0.927-1.022-2.508-1.101-3.532-0.173
		c-4.085,3.702-5.381,9.423-5.003,14.696l-12.588-5.718l2.323-10.489c0.168-0.728,4.313-17.89,21.078-21.83l1.964-0.471
		c1.806,9.233,11.754,15.237,25.894,15.237c14.14,0,24.09-6.004,25.896-15.238l1.976,0.474
		c16.753,3.938,20.897,21.099,21.061,21.811l2.327,10.506l-12.588,5.719c0.377-5.273-0.918-10.995-5.002-14.697
		c-1.023-0.928-2.604-0.85-3.531,0.173C369.948,130.647,370.025,132.228,371.048,133.155z M308.486,160.715l0.689-2.261
		c0.778,0.515,1.595,0.926,2.447,1.204l0.69,11.74c-0.853,1.309-1.681,2.759-2.488,4.33
		C309.856,175.067,309.744,165.443,308.486,160.715z M413.184,242.021c-0.845,1.337-2.161,2.266-3.705,2.615
		c-1.541,0.347-3.129,0.075-4.467-0.771c-1.338-0.845-2.266-2.16-2.614-3.703c-0.014-0.06-0.029-0.12-0.047-0.178l-26.1-85.728
		c0.756-1.204,1.419-2.553,1.945-4.066l14.906-6.772l20.852,94.135C414.301,239.097,414.029,240.684,413.184,242.021z"/>
	<path style="fill:#1C1B1A;" d="M104.877,65.816c5.286,0,8.978-2.147,8.978-5.223c0-1.381-1.119-2.5-2.5-2.5
		c-1.175,0-2.161,0.811-2.428,1.903c-0.487,0.3-1.873,0.82-4.049,0.82c-2.176,0-3.563-0.52-4.049-0.819
		c-0.268-1.093-1.253-1.903-2.428-1.903c-1.381,0-2.5,1.119-2.5,2.5C95.899,63.669,99.591,65.816,104.877,65.816z"/>
	<path style="fill:#1C1B1A;" d="M95.879,47.731c0.47-0.47,0.73-1.11,0.73-1.77c0-0.65-0.26-1.3-0.73-1.76
		c-0.94-0.94-2.6-0.94-3.54,0c-0.46,0.46-0.73,1.11-0.73,1.76c0,0.66,0.27,1.309,0.73,1.77c0.47,0.47,1.12,0.73,1.77,0.73
		C94.769,48.461,95.409,48.2,95.879,47.731z"/>
	<path style="fill:#1C1B1A;" d="M115.639,48.461c0.66,0,1.31-0.26,1.77-0.73c0.47-0.461,0.73-1.11,0.73-1.77
		c0-0.65-0.26-1.3-0.73-1.76c-0.93-0.93-2.6-0.93-3.53,0c-0.47,0.46-0.74,1.11-0.74,1.76c0,0.66,0.27,1.309,0.74,1.77
		C114.339,48.2,114.989,48.461,115.639,48.461z"/>
</g>
<g>
</g>
<g>
</g>
<g>
</g>
<g>
</g>
<g>
</g>
<g>
</g>
<g>
</g>
<g>
</g>
<g>
</g>
<g>
</g>
<g>
</g>
<g>
</g>
<g>
</g>
<g>
</g>
<g>
</g>
</svg>
